<svg width="48" height="48" viewBox="0 0 48 48" fill="none" xmlns="http://www.w3.org/2000/svg">
<path d="M28.4964 17.4395C28.7291 17.4395 29.1256 17.4766 29.686 17.5506C30.2464 17.6246 30.8596 17.8361 31.5258 18.185C32.2025 18.5233 32.8158 19.089 33.3656 19.8821C33.3339 19.9138 33.1805 20.0301 32.9056 20.231C32.6307 20.4213 32.3241 20.7068 31.9857 21.0874C31.6474 21.4575 31.3513 21.9333 31.0975 22.5149C30.8438 23.0859 30.7169 23.7679 30.7169 24.5609C30.7169 25.4702 30.8755 26.2421 31.1927 26.8765C31.5205 27.5109 31.8958 28.0237 32.3188 28.415C32.7523 28.7956 33.133 29.0758 33.4607 29.2556C33.7991 29.4353 33.9789 29.5305 34 29.5411C33.9894 29.5833 33.852 29.9587 33.5876 30.6671C33.3339 31.3756 32.9109 32.1633 32.3188 33.0303C31.8007 33.7811 31.2403 34.4736 30.6376 35.1081C30.0455 35.7425 29.3317 36.0597 28.4964 36.0597C27.936 36.0597 27.4761 35.9804 27.1166 35.8218C26.7571 35.6526 26.387 35.4887 26.0063 35.3301C25.6257 35.1609 25.1129 35.0763 24.4679 35.0763C23.844 35.0763 23.3206 35.1609 22.8977 35.3301C22.4853 35.4993 22.0888 35.6685 21.7082 35.8376C21.3381 36.0068 20.8993 36.0914 20.3918 36.0914C19.6199 36.0914 18.9432 35.7848 18.3616 35.1715C17.7801 34.5582 17.1827 33.8234 16.5694 32.9669C15.861 31.9518 15.253 30.7147 14.7454 29.2556C14.2485 27.7858 14 26.3055 14 24.8146C14 23.218 14.3013 21.8805 14.904 20.802C15.5067 19.7129 16.2786 18.8934 17.2197 18.3436C18.1713 17.7832 19.1546 17.503 20.1697 17.503C20.709 17.503 21.2165 17.5929 21.6923 17.7726C22.1681 17.9418 22.6122 18.1163 23.0246 18.296C23.4475 18.4758 23.8282 18.5656 24.1665 18.5656C24.4943 18.5656 24.875 18.4705 25.3085 18.2801C25.742 18.0898 26.2284 17.9048 26.7676 17.725C27.3069 17.5347 27.8832 17.4395 28.4964 17.4395ZM27.6241 15.4253C27.2117 15.9222 26.6936 16.3399 26.0698 16.6782C25.4459 17.006 24.8538 17.1699 24.2934 17.1699C24.1771 17.1699 24.0661 17.1593 23.9603 17.1382C23.9498 17.1065 23.9392 17.0483 23.9286 16.9637C23.9181 16.8791 23.9128 16.7893 23.9128 16.6941C23.9128 16.0597 24.0502 15.4464 24.3251 14.8543C24.6001 14.2516 24.912 13.7546 25.2609 13.3634C25.705 12.8347 26.2654 12.3959 26.9421 12.047C27.6188 11.6981 28.2638 11.513 28.8771 11.4919C28.9088 11.6293 28.9247 11.7932 28.9247 11.9836C28.9247 12.618 28.8031 13.2365 28.5599 13.8392C28.3167 14.4313 28.0048 14.96 27.6241 15.4253Z" fill="white"/>
</svg>
